<svg id="Layer_1" data-name="Layer 1" xmlns="http://www.w3.org/2000/svg" viewBox="0 0 512 512"><defs><style>.cls-1{fill:#dde5e8;}.cls-2{fill:#71c6c4;}.cls-3{fill:#cad8dd;}.cls-4{fill:#f4607f;}.cls-5{fill:#ba385d;}</style></defs><title>calendar-x-flat</title><path class="cls-1" d="M0,396.8a64,64,0,0,0,64,64H448a64,64,0,0,0,64-64V179.2H0Z"/><path class="cls-2" d="M512,179.2V102.4a64,64,0,0,0-64-64H64a64,64,0,0,0-64,64v76.8Z"/><path class="cls-1" d="M179.2,64a38.4,38.4,0,0,1-38.4,38.4h0A38.4,38.4,0,0,1,102.4,64V38.4A38.4,38.4,0,0,1,140.8,0h0a38.4,38.4,0,0,1,38.4,38.4Z"/><path class="cls-1" d="M409.6,64a38.4,38.4,0,0,1-38.4,38.4h0A38.4,38.4,0,0,1,332.8,64V38.4A38.4,38.4,0,0,1,371.2,0h0a38.4,38.4,0,0,1,38.4,38.4Z"/><path class="cls-3" d="M448,460.8H64a64,64,0,0,1-64-64v32A83.2,83.2,0,0,0,83.2,512H428.8A83.2,83.2,0,0,0,512,428.8v-32A64,64,0,0,1,448,460.8Z"/><circle class="cls-4" cx="256" cy="307.2" r="89.6"/><path class="cls-5" d="M274.1,307.2l16.55-16.55a12.8,12.8,0,0,0-18.1-18.1L256,289.1l-16.55-16.55a12.8,12.8,0,0,0-18.1,18.1L237.9,307.2l-16.55,16.55a12.8,12.8,0,1,0,18.1,18.1L256,325.3l16.55,16.55a12.8,12.8,0,0,0,18.1-18.1Z"/></svg>